<svg xmlns="http://www.w3.org/2000/svg" xmlns:xlink="http://www.w3.org/1999/xlink"><symbol id="alarm-clock" viewBox="0 0 58.153 58.153">
<g>
	<path d="M40.076,29.153h-7.142c-0.364-1.399-1.459-2.494-2.858-2.858V16.153c0-0.553-0.448-1-1-1s-1,0.447-1,1v10.142
		c-1.72,0.447-3,1.999-3,3.858c0,2.206,1.794,4,4,4c1.858,0,3.411-1.28,3.858-3h7.142c0.552,0,1-0.447,1-1
		S40.629,29.153,40.076,29.153z M29.076,32.153c-1.103,0-2-0.897-2-2s0.897-2,2-2s2,0.897,2,2S30.179,32.153,29.076,32.153z"/>
	<path d="M50.188,9.764l4.096,4.096c0.188,0.188,0.442,0.293,0.707,0.293s0.52-0.105,0.707-0.293c3.167-3.166,3.167-8.319,0-11.485
		c-3.166-3.166-8.319-3.166-11.485,0c-0.188,0.188-0.293,0.441-0.293,0.707s0.105,0.52,0.293,0.707l4.561,4.561l-1.699,1.699
		c-4.78-4.284-11.089-6.896-17.998-6.896s-13.218,2.612-17.998,6.896L9.379,8.35l4.561-4.561c0.188-0.188,0.293-0.441,0.293-0.707
		s-0.105-0.52-0.293-0.707c-3.166-3.166-8.319-3.166-11.485,0c-3.167,3.166-3.167,8.319,0,11.485
		c0.188,0.188,0.442,0.293,0.707,0.293s0.52-0.105,0.707-0.293l4.096-4.096l1.676,1.676c-4.679,4.857-7.565,11.453-7.565,18.713
		c0,9.898,5.357,18.564,13.321,23.265l-3.028,3.028c-0.391,0.391-0.391,1.023,0,1.414c0.195,0.195,0.451,0.293,0.707,0.293
		s0.512-0.098,0.707-0.293l3.45-3.45c3.578,1.754,7.597,2.743,11.843,2.743s8.265-0.989,11.843-2.743l3.45,3.45
		c0.195,0.195,0.451,0.293,0.707,0.293s0.512-0.098,0.707-0.293c0.391-0.391,0.391-1.023,0-1.414l-3.028-3.028
		c7.964-4.701,13.321-13.367,13.321-23.265c0-7.26-2.886-13.856-7.565-18.713L50.188,9.764z M54.283,3.789
		c2.146,2.146,2.362,5.502,0.649,7.893l-8.541-8.542C48.78,1.427,52.137,1.642,54.283,3.789z M3.22,11.681
		C1.507,9.291,1.723,5.935,3.869,3.789c2.146-2.146,5.503-2.361,7.892-0.649L3.22,11.681z M29.076,55.153c-13.785,0-25-11.215-25-25
		s11.215-25,25-25s25,11.215,25,25S42.862,55.153,29.076,55.153z"/>
	<path d="M48.958,18.61c-2.01-3.449-4.89-6.328-8.338-8.338c-0.016-0.011-0.026-0.028-0.043-0.038
		c-0.018-0.01-0.037-0.01-0.055-0.019c-3.373-1.944-7.28-3.063-11.445-3.063c-4.165,0-8.072,1.118-11.445,3.063
		c-0.018,0.009-0.038,0.008-0.055,0.019c-0.017,0.01-0.026,0.027-0.043,0.038c-3.449,2.01-6.328,4.889-8.338,8.338
		c-0.011,0.017-0.028,0.026-0.038,0.043c-0.01,0.017-0.01,0.037-0.018,0.055c-1.944,3.374-3.063,7.28-3.063,11.445
		s1.119,8.072,3.063,11.445c0.009,0.018,0.008,0.037,0.018,0.055c0.014,0.025,0.035,0.043,0.051,0.066
		c2.01,3.438,4.884,6.309,8.325,8.315c0.016,0.011,0.026,0.028,0.043,0.038c0.026,0.015,0.054,0.021,0.08,0.033
		c3.368,1.935,7.265,3.048,11.42,3.048s8.052-1.113,11.42-3.048c0.026-0.012,0.054-0.018,0.08-0.033
		c0.017-0.01,0.026-0.027,0.043-0.038c3.441-2.006,6.315-4.876,8.325-8.315c0.016-0.023,0.037-0.041,0.051-0.066
		c0.01-0.017,0.01-0.037,0.018-0.055c1.944-3.374,3.063-7.28,3.063-11.445s-1.119-8.072-3.063-11.445
		c-0.009-0.018-0.008-0.037-0.018-0.055C48.985,18.636,48.968,18.626,48.958,18.61z M40.419,47.799l-0.477-0.826
		c-0.277-0.478-0.888-0.643-1.366-0.366c-0.478,0.276-0.642,0.888-0.366,1.366l0.479,0.829c-2.603,1.347-5.52,2.153-8.612,2.3
		v-0.949c0-0.553-0.448-1-1-1s-1,0.447-1,1v0.949c-3.092-0.146-6.009-0.953-8.612-2.3l0.479-0.829
		c0.276-0.479,0.112-1.09-0.366-1.366c-0.481-0.276-1.09-0.111-1.366,0.366l-0.477,0.826c-2.525-1.628-4.675-3.779-6.303-6.303
		l0.826-0.477c0.478-0.276,0.642-0.888,0.366-1.366c-0.277-0.478-0.887-0.645-1.366-0.366l-0.829,0.479
		c-1.347-2.603-2.153-5.521-2.3-8.612h0.949c0.552,0,1-0.447,1-1s-0.448-1-1-1H8.127c0.147-3.092,0.953-6.01,2.3-8.612l0.829,0.479
		c0.158,0.091,0.33,0.134,0.499,0.134c0.346,0,0.682-0.18,0.867-0.5c0.276-0.479,0.112-1.09-0.366-1.366L11.43,18.81
		c1.628-2.524,3.779-4.675,6.303-6.303l0.477,0.826c0.186,0.32,0.521,0.5,0.867,0.5c0.169,0,0.341-0.043,0.499-0.134
		c0.478-0.276,0.642-0.888,0.366-1.366l-0.479-0.829c2.603-1.347,5.52-2.153,8.612-2.3v0.949c0,0.553,0.448,1,1,1s1-0.447,1-1V9.204
		c3.092,0.146,6.009,0.953,8.612,2.3l-0.479,0.829c-0.276,0.479-0.112,1.09,0.366,1.366c0.158,0.091,0.33,0.134,0.499,0.134
		c0.346,0,0.682-0.18,0.867-0.5l0.477-0.826c2.525,1.628,4.675,3.779,6.303,6.303l-0.826,0.477
		c-0.478,0.276-0.642,0.888-0.366,1.366c0.186,0.32,0.521,0.5,0.867,0.5c0.169,0,0.341-0.043,0.499-0.134l0.829-0.479
		c1.347,2.603,2.153,5.521,2.3,8.612h-0.949c-0.552,0-1,0.447-1,1s0.448,1,1,1h0.949c-0.147,3.092-0.953,6.01-2.3,8.612
		l-0.829-0.479c-0.48-0.278-1.09-0.111-1.366,0.366c-0.276,0.479-0.112,1.09,0.366,1.366l0.826,0.477
		C45.094,44.02,42.944,46.17,40.419,47.799z"/>
</g>
<g>
</g>
<g>
</g>
<g>
</g>
<g>
</g>
<g>
</g>
<g>
</g>
<g>
</g>
<g>
</g>
<g>
</g>
<g>
</g>
<g>
</g>
<g>
</g>
<g>
</g>
<g>
</g>
<g>
</g>
</symbol><symbol id="ascendant-bars-graphic" viewBox="0 0 512 512">
<g>
	<path d="M512,480v32H0V0h32v480H512z M228.906,177.719l130.719,32.656L404.875,135l41,24.625L448,32L336.406,93.938l41,24.625
		l-33.031,55.063l-125.281-31.344L84.688,276.688l22.625,22.625L228.906,177.719z M192,448h64V217.469l-17.281-4.312L192,259.875
		V448z M96,333.25V448h64V291.875l-52.688,52.688L96,333.25z M384,232v216h64V198.219l-32.156-19.281L384,232z M352,448V241.469
		l-64-16V448H352z"/>
</g>
<g>
</g>
<g>
</g>
<g>
</g>
<g>
</g>
<g>
</g>
<g>
</g>
<g>
</g>
<g>
</g>
<g>
</g>
<g>
</g>
<g>
</g>
<g>
</g>
<g>
</g>
<g>
</g>
<g>
</g>
</symbol><symbol id="digital-marketing" viewBox="0 0 512 512">
<g>
	<g>
		<path d="M197.964,32.041h-71.987c-5.521,0-9.998,4.476-9.998,9.998c0,5.522,4.477,9.998,9.998,9.998h71.987
			c5.521,0,9.998-4.476,9.998-9.998C207.962,36.517,203.485,32.041,197.964,32.041z"/>
	</g>
</g>
<g>
	<g>
		<path d="M169.038,456.653c-1.859-1.861-4.438-2.93-7.068-2.93s-5.209,1.07-7.069,2.93c-1.86,1.86-2.929,4.439-2.929,7.069
			c0,2.63,1.069,5.209,2.929,7.069c1.86,1.86,4.439,2.929,7.069,2.929s5.209-1.07,7.068-2.929c1.86-1.86,2.93-4.439,2.93-7.069
			C171.968,461.082,170.899,458.512,169.038,456.653z"/>
	</g>
</g>
<g>
	<g>
		<path d="M447.633,317.864l-36.785-63.713c15.083-13.975,19.107-37.036,8.401-55.579c-6.019-10.424-15.735-17.881-27.363-20.996
			c-8.333-2.234-16.933-2.031-24.976,0.473l-36.778-63.701c-1.661-2.876-4.642-4.741-7.956-4.974
			c-3.316-0.237-6.527,1.195-8.574,3.809L199.094,259.411l-48.056,27.745c-27.422,15.831-36.85,51.021-21.018,78.443
			c7.67,13.284,20.052,22.786,34.869,26.755c4.947,1.326,9.967,1.982,14.955,1.982c9.95,0,19.77-2.609,28.619-7.719l5.723-3.304
			l19.961,34.573H19.996V84.031h283.948v2.999c0,5.522,4.477,9.998,9.998,9.998s9.998-4.476,9.998-9.998V39.3
			c0-21.644-17.609-39.254-39.254-39.254H39.254C17.609,0.046,0,17.655,0,39.3V472.7c0,21.644,17.609,39.254,39.254,39.254h245.434
			c21.644,0,39.254-17.609,39.254-39.254V349.312l116.44-16.551c3.288-0.467,6.13-2.536,7.583-5.523
			C449.417,324.253,449.294,320.74,447.633,317.864z M19.996,39.3c0-10.619,8.639-19.257,19.257-19.257h245.434
			c10.618,0,19.257,8.638,19.257,19.257v24.734H19.996V39.3z M386.711,196.891c6.468,1.733,11.873,5.881,15.221,11.68
			c5.134,8.893,4.178,19.656-1.56,27.437l-22.988-39.817C380.469,195.84,383.622,196.063,386.711,196.891z M198.465,369.3
			c-8.658,4.999-18.747,6.326-28.401,3.739c-9.656-2.588-17.727-8.78-22.726-17.439c-10.318-17.873-4.173-40.809,13.699-51.128
			l41.076-23.715l37.424,64.829L198.465,369.3z M231.504,373.315l18.031-10.41l23.621,40.911l-18.031,10.41L231.504,373.315z
			 M303.944,472.699c0,10.619-8.639,19.257-19.257,19.257H39.254c-10.618,0-19.257-8.638-19.257-19.257v-34.817h283.948V472.699z
			 M303.944,417.886h-15.167l3.033-1.752c4.782-2.76,6.421-8.875,3.659-13.658l-26.207-45.393l34.682-4.93V417.886z
			 M258.492,338.417l-40.686-70.469l72.718-92.862l84.719,146.736L258.492,338.417z M396.581,318.789l-92.766-160.676l16.403-20.946
			l102.698,177.878L396.581,318.789z"/>
	</g>
</g>
<g>
	<g>
		<path d="M510.658,146.14c-2.761-4.781-8.874-6.421-13.657-3.659l-49.023,28.304c-4.782,2.76-6.421,8.875-3.659,13.657
			c1.853,3.207,5.212,5,8.668,5c1.696,0,3.415-0.432,4.989-1.341l49.023-28.304C511.781,157.037,513.42,150.922,510.658,146.14z"/>
	</g>
</g>
<g>
	<g>
		<path d="M420.164,102.243c-5.335-1.43-10.815,1.737-12.245,7.07l-7.147,26.674c-1.43,5.335,1.736,10.817,7.07,12.246
			c0.867,0.232,1.737,0.343,2.594,0.343c4.414,0,8.454-2.946,9.651-7.413l7.147-26.674
			C428.663,109.154,425.498,103.672,420.164,102.243z"/>
	</g>
</g>
<g>
	<g>
		<path d="M496.524,233.037l-27.566-7.387c-5.335-1.43-10.815,1.737-12.245,7.07c-1.43,5.334,1.736,10.816,7.07,12.246l27.566,7.387
			c0.867,0.232,1.737,0.343,2.594,0.343c4.414,0,8.454-2.946,9.651-7.413C505.023,239.948,501.858,234.465,496.524,233.037z"/>
	</g>
</g>
<g>
	<g>
		<path d="M189.632,113.194H51.669c-5.521,0-9.998,4.476-9.998,9.998s4.477,9.998,9.998,9.998h137.964
			c5.521,0,9.998-4.476,9.998-9.998S195.153,113.194,189.632,113.194z"/>
	</g>
</g>
<g>
	<g>
		<path d="M196.704,164.116c-1.86-1.87-4.439-2.93-7.069-2.93c-2.64,0-5.209,1.06-7.069,2.93c-1.87,1.86-2.929,4.439-2.929,7.069
			c0,2.63,1.06,5.209,2.929,7.069c1.86,1.859,4.429,2.929,7.069,2.929c2.63,0,5.209-1.07,7.069-2.929
			c1.859-1.86,2.929-4.439,2.929-7.069C199.633,168.555,198.564,165.976,196.704,164.116z"/>
	</g>
</g>
<g>
	<g>
		<path d="M148.306,161.185H51.669c-5.521,0-9.998,4.476-9.998,9.998s4.477,9.998,9.998,9.998h96.637
			c5.521,0,9.998-4.476,9.998-9.998S153.827,161.185,148.306,161.185z"/>
	</g>
</g>
<g>
	<g>
		<path d="M165.879,209.176H90.074c-5.521,0-9.998,4.476-9.998,9.998s4.476,9.998,9.998,9.998h75.804
			c5.521,0,9.998-4.476,9.998-9.998S171.4,209.176,165.879,209.176z"/>
	</g>
</g>
<g>
	<g>
		<path d="M52.049,209.176h-0.464c-5.521,0-9.998,4.476-9.998,9.998s4.477,9.998,9.998,9.998h0.464c5.521,0,9.998-4.476,9.998-9.998
			S57.57,209.176,52.049,209.176z"/>
	</g>
</g>
<g>
</g>
<g>
</g>
<g>
</g>
<g>
</g>
<g>
</g>
<g>
</g>
<g>
</g>
<g>
</g>
<g>
</g>
<g>
</g>
<g>
</g>
<g>
</g>
<g>
</g>
<g>
</g>
<g>
</g>
</symbol><symbol id="facebook" viewBox="0 0 512 512">
<g>
	<g>
		<path d="M288,176v-64c0-17.664,14.336-32,32-32h32V0h-64c-53.024,0-96,42.976-96,96v80h-64v80h64v256h96V256h64l32-80H288z"/>
	</g>
</g>
<g>
</g>
<g>
</g>
<g>
</g>
<g>
</g>
<g>
</g>
<g>
</g>
<g>
</g>
<g>
</g>
<g>
</g>
<g>
</g>
<g>
</g>
<g>
</g>
<g>
</g>
<g>
</g>
<g>
</g>
</symbol><symbol id="full-shoping-cart" viewBox="0 0 287.755 287.755">
<g>
	<path d="M134.16,279.13c-15.24,0-26.715-12.31-26.715-27.544c0-15.162,11.475-26.638,26.715-26.638
		c15.162,0,27.472,11.476,27.472,26.638C161.626,266.821,149.316,279.13,134.16,279.13z"/>
	<path d="M265.515,176.575c-1.682,7.085-2.275,19.503-6.762,25.244c-2.708,3.465-6.773,5.626-11.943,5.626H92.21
		c-9.962,0-18.056-8.022-18.056-18.003c0-6.461-18.507-98.199-25.497-132.633c-1.453-7.146-8.551-12.995-15.834-13.061
		l-14.711-0.141c-19.786,0-18.075-18.774-18.075-18.774c0.384-6.626,2.642-10.581,5.434-12.911
		c5.597-4.668,18.231-3.008,25.347-3.02l12.874-0.024c22.146,0,30.883,12.661,34.317,22.929c2.312,6.917,3.495,18.735,5.05,25.857
		l22.104,100.829c1.561,7.122,8.737,12.893,16.021,12.893H222.31c7.29,0,14.412-5.771,15.907-12.91l16.507-78.486
		c2.132-9.217,5.566-13.627,9.086-15.501c6.425-3.444,19.882,1.63,22.416,8.455c3.759,10.157-0.595,27.37-0.595,27.37
		S272.691,146.484,265.515,176.575z"/>
	<path d="M224.382,279.13c-15.18,0-26.649-12.31-26.649-27.544c0-15.162,11.47-26.638,26.649-26.638
		c15.162,0,27.525,11.476,27.525,26.638C251.908,266.821,239.544,279.13,224.382,279.13z"/>
	<path d="M135.085,153.335c-4.984,0-9.025-4.053-9.025-9.043c0-4.978,4.042-9.031,9.025-9.031c4.996,0,9.031,4.053,9.031,9.031
		C144.116,149.283,140.087,153.335,135.085,153.335z"/>
	<path d="M171.209,153.335c-4.983,0-9.024-4.053-9.024-9.043c0-4.978,4.041-9.031,9.024-9.031c4.979,0,9.031,4.053,9.031,9.031
		C180.241,149.283,176.188,153.335,171.209,153.335z"/>
	<path d="M207.323,153.335c-4.99,0-9.031-4.053-9.031-9.043c0-4.978,4.041-9.031,9.031-9.031c4.978,0,9.025,4.053,9.025,9.031
		C216.348,149.283,212.3,153.335,207.323,153.335z"/>
	<path d="M117.022,117.21c-4.972,0-9.037-4.035-9.037-9.021c0-4.981,4.065-9.035,9.037-9.035c5.008,0,9.043,4.053,9.043,9.035
		C126.06,113.175,122.024,117.21,117.022,117.21z"/>
	<path d="M153.147,99.161c4.984,0,9.025,4.044,9.025,9.028c0,4.986-4.041,9.028-9.025,9.028c-4.989,0-9.031-4.042-9.031-9.028
		C144.116,103.205,148.158,99.161,153.147,99.161z"/>
	<path d="M189.266,99.161c4.984,0,9.025,4.044,9.025,9.028c0,4.986-4.041,9.028-9.025,9.028c-4.99,0-9.031-4.042-9.031-9.028
		C180.235,103.205,184.276,99.161,189.266,99.161z"/>
	<path d="M225.379,99.161c4.983,0,9.024,4.044,9.024,9.028c0,4.986-4.041,9.028-9.024,9.028c-4.99,0-9.031-4.042-9.031-9.028
		C216.348,103.205,220.389,99.161,225.379,99.161z"/>
	<path d="M207.323,81.104c-4.99,0-9.031-4.053-9.031-9.022c0-4.993,4.041-9.031,9.031-9.031c4.978,0,9.025,4.032,9.025,9.031
		C216.348,77.051,212.3,81.104,207.323,81.104z"/>
	<path d="M171.209,81.104c-4.983,0-9.024-4.053-9.024-9.022c0-4.993,4.041-9.031,9.024-9.031c4.979,0,9.031,4.032,9.031,9.031
		C180.241,77.051,176.188,81.104,171.209,81.104z"/>
	<path d="M135.085,81.104c-4.984,0-9.025-4.053-9.025-9.022c0-4.993,4.042-9.031,9.025-9.031c4.996,0,9.031,4.032,9.031,9.031
		C144.116,77.051,140.087,81.104,135.085,81.104z"/>
</g>
<g>
</g>
<g>
</g>
<g>
</g>
<g>
</g>
<g>
</g>
<g>
</g>
<g>
</g>
<g>
</g>
<g>
</g>
<g>
</g>
<g>
</g>
<g>
</g>
<g>
</g>
<g>
</g>
<g>
</g>
</symbol><symbol id="house-outline" viewBox="0 0 611.997 611.998">
<g>
	<g>
		<path d="M511.114,300.251c-9.94,0-17.638,7.663-17.638,17.651v241.105H368.401v-98.453c0-9.236-7.697-17.31-17.002-17.31h-90.435
			c-9.948,0-17.96,8.073-17.96,17.31v98.453h-124.76v-233.1c0-9.306-7.69-17.036-17.638-17.036c-9.298,0-16.995,7.73-16.995,17.036
			v250.752c0,9.305,7.697,17.036,16.995,17.036h160.358c9.298,0,16.995-7.731,16.995-17.036v-98.454h55.801v98.454
			c0,9.305,7.697,17.036,17.639,17.036h159.715c9.299,0,16.995-7.731,16.995-17.036V317.903
			C528.109,307.915,520.413,300.251,511.114,300.251z"/>
		<path d="M607.003,314.003L467.819,174.225V78.919c0-9.921-8.019-17.583-17.96-17.583c-9.305,0-17.001,7.663-17.001,17.583v60.345
			L318.046,23.774c-3.518-3.558-7.697-5.474-11.864-5.474c-4.81,0-8.983,1.984-12.507,5.474L5.361,312.087
			c-6.917,6.91-7.375,17.994,0,24.357c6.411,7.389,17.454,6.91,24.371,0l276.45-275.793l275.807,278.393
			c2.873,2.874,7.054,4.516,12.507,4.516c4.81,0,8.976-1.642,12.507-4.516C613.42,332.613,613.899,320.982,607.003,314.003z"/>
	</g>
</g>
<g>
</g>
<g>
</g>
<g>
</g>
<g>
</g>
<g>
</g>
<g>
</g>
<g>
</g>
<g>
</g>
<g>
</g>
<g>
</g>
<g>
</g>
<g>
</g>
<g>
</g>
<g>
</g>
<g>
</g>
</symbol><symbol id="instagram" viewBox="0 0 512 512">
<g>
	<g>
		<path d="M352,0H160C71.648,0,0,71.648,0,160v192c0,88.352,71.648,160,160,160h192c88.352,0,160-71.648,160-160V160
			C512,71.648,440.352,0,352,0z M464,352c0,61.76-50.24,112-112,112H160c-61.76,0-112-50.24-112-112V160C48,98.24,98.24,48,160,48
			h192c61.76,0,112,50.24,112,112V352z"/>
	</g>
</g>
<g>
	<g>
		<path d="M256,128c-70.688,0-128,57.312-128,128s57.312,128,128,128s128-57.312,128-128S326.688,128,256,128z M256,336
			c-44.096,0-80-35.904-80-80c0-44.128,35.904-80,80-80s80,35.872,80,80C336,300.096,300.096,336,256,336z"/>
	</g>
</g>
<g>
	<g>
		<circle cx="393.6" cy="118.4" r="17.056"/>
	</g>
</g>
<g>
</g>
<g>
</g>
<g>
</g>
<g>
</g>
<g>
</g>
<g>
</g>
<g>
</g>
<g>
</g>
<g>
</g>
<g>
</g>
<g>
</g>
<g>
</g>
<g>
</g>
<g>
</g>
<g>
</g>
</symbol><symbol id="magnifying-glass" viewBox="0 0 512 512">
  <g>
    <path d="M495,466.2L377.2,348.4c29.2-35.6,46.8-81.2,46.8-130.9C424,103.5,331.5,11,217.5,11C103.4,11,11,103.5,11,217.5   S103.4,424,217.5,424c49.7,0,95.2-17.5,130.8-46.7L466.1,495c8,8,20.9,8,28.9,0C503,487.1,503,474.1,495,466.2z M217.5,382.9   C126.2,382.9,52,308.7,52,217.5S126.2,52,217.5,52C308.7,52,383,126.3,383,217.5S308.7,382.9,217.5,382.9z"/>
  </g>
</symbol><symbol id="monitor" viewBox="0 0 511.999 511.999">
<g>
	<g>
		<path d="M481.091,27.937H30.909C13.866,27.937,0,41.803,0,58.846v310.819c0,17.043,13.866,30.909,30.909,30.909h154.26v22.49
			c0,20.617-16.774,37.391-37.391,37.391h-33.997c-6.518,0-11.803,5.284-11.803,11.803c0,6.519,5.285,11.803,11.803,11.803h284.436
			c6.518,0,11.803-5.284,11.803-11.803c0-6.519-5.285-11.803-11.803-11.803h-33.998c-20.617,0-37.391-16.774-37.391-37.391v-22.489
			h154.26c17.043,0,30.91-13.866,30.91-30.909V58.846C512,41.803,498.134,27.937,481.091,27.937z M195.92,460.457
			c8.046-10.336,12.857-23.308,12.857-37.391v-22.49h94.447v22.49c0,14.083,4.811,27.056,12.857,37.391H195.92z M488.394,369.666
			c0,4.027-3.276,7.304-7.304,7.304H30.909c-4.027,0-7.304-3.276-7.304-7.304v-62.033h464.789V369.666z M488.394,284.026H23.606
			V58.846c0-4.027,3.276-7.304,7.304-7.304h450.18c4.027,0,7.305,3.276,7.305,7.304V284.026z"/>
	</g>
</g>
<g>
	<g>
		<circle cx="256.003" cy="342.305" r="12.738"/>
	</g>
</g>
<g>
	<g>
		<path d="M276.238,109.254c-4.61-4.609-12.081-4.609-16.693,0l-83.414,83.414c-4.609,4.609-4.609,12.083,0,16.693
			c2.306,2.305,5.325,3.457,8.347,3.457c3.022,0,6.041-1.152,8.346-3.457l83.414-83.414
			C280.847,121.338,280.847,113.864,276.238,109.254z"/>
	</g>
</g>
<g>
	<g>
		<path d="M325.678,157.593c-4.608-4.609-12.079-4.609-16.692-0.001l-33.23,33.228c-4.609,4.61-4.609,12.084,0,16.693
			c2.305,2.305,5.325,3.457,8.346,3.457c3.02,0,6.041-1.152,8.346-3.457l33.23-33.228
			C330.287,169.676,330.287,162.202,325.678,157.593z"/>
	</g>
</g>
<g>
</g>
<g>
</g>
<g>
</g>
<g>
</g>
<g>
</g>
<g>
</g>
<g>
</g>
<g>
</g>
<g>
</g>
<g>
</g>
<g>
</g>
<g>
</g>
<g>
</g>
<g>
</g>
<g>
</g>
</symbol><symbol id="open-book" viewBox="0 0 297.001 297.001">
<g>
	<g>
		<path d="M287.034,60.873l-20.819-0.001V39.321c0-4.934-3.61-9.126-8.49-9.856c-0.852-0.128-21.134-3.074-45.557,1.37
			c-27.227,4.954-48.941,17.171-63.668,35.64c-14.728-18.469-36.442-30.686-63.668-35.64c-24.424-4.443-44.706-1.498-45.557-1.37
			c-4.88,0.731-8.49,4.923-8.49,9.856v21.551H9.966C4.463,60.872,0,65.335,0,70.839v187.805c0,3.227,1.562,6.254,4.193,8.124
			s6.004,2.35,9.051,1.288c0.748-0.259,75.431-25.747,131.12-0.345c2.628,1.199,5.645,1.199,8.273,0
			c55.533-25.33,130.376,0.088,131.12,0.345c1.068,0.372,2.174,0.555,3.276,0.555c2.043,0,4.065-0.628,5.775-1.842
			c2.631-1.87,4.193-4.897,4.193-8.124V70.84C297,65.336,292.538,60.873,287.034,60.873z M19.933,245.309V80.805h10.852v132.726
			c0,2.896,1.267,5.646,3.458,7.539c2.191,1.893,5.105,2.742,7.969,2.319c0.55-0.08,43.846-6.024,75.478,15.679
			C78.725,232.405,39.727,240.112,19.933,245.309z M138.534,230.08c-13.932-12.588-32.079-21.1-53.702-25.034
			c-10.406-1.894-20.06-2.446-27.78-2.446c-2.292,0-4.414,0.049-6.333,0.126V48.473h-0.001c19.155-0.864,65.752,1.184,87.816,38.587
			V230.08z M158.466,87.061c21.985-37.243,68.655-39.384,87.816-38.563v154.228c-8.383-0.338-20.62-0.136-34.114,2.32
			c-21.623,3.934-39.77,12.445-53.702,25.034V87.061z M179.277,239.074c31.636-21.716,74.955-15.766,75.495-15.686
			c2.871,0.431,5.783-0.413,7.981-2.305c2.198-1.894,3.462-4.65,3.462-7.552V80.806h10.852v164.503
			C257.267,240.11,218.253,232.4,179.277,239.074z"/>
	</g>
</g>
<g>
</g>
<g>
</g>
<g>
</g>
<g>
</g>
<g>
</g>
<g>
</g>
<g>
</g>
<g>
</g>
<g>
</g>
<g>
</g>
<g>
</g>
<g>
</g>
<g>
</g>
<g>
</g>
<g>
</g>
</symbol><symbol id="path" viewBox="0 0 512.012 512.012">
<g>
	<g>
		<path d="M511.869,183.98C509.085,112.972,443.773-1.332,254.301,0.012C56.445,1.42-1.379,133.932,0.029,209.676
			c1.376,75.776,50.848,117.696,50.848,117.696l73.856-60.864c0,0-31.36,2.688-31.36-59.52c0-94.784,113.568-119.04,186.016-117.696
			s129.632,59.84,130.624,105.504c0.96,44.64-10.88,72.96-47.04,93.312c-43.2,24.352-95.552,2.72-95.552,2.72l0.704-152.832
			l-97.664,0.576l-0.256,269.952c0,0-0.896,21.6-26.112,20.288c-18.08-0.928-40.928-20.8-40.928-20.8l0.16,80.32
			c0,0,28.192,23.68,72.8,23.68c96.16,0,91.968-94.016,91.968-94.016v-52.96c0,0,19.616,9.472,58.624,9.472
			C488.381,374.508,514.205,243.532,511.869,183.98z"/>
	</g>
</g>
<g>
</g>
<g>
</g>
<g>
</g>
<g>
</g>
<g>
</g>
<g>
</g>
<g>
</g>
<g>
</g>
<g>
</g>
<g>
</g>
<g>
</g>
<g>
</g>
<g>
</g>
<g>
</g>
<g>
</g>
</symbol><symbol id="twitter" viewBox="0 0 512 512">
<g>
	<g>
		<path d="M512,97.248c-19.04,8.352-39.328,13.888-60.48,16.576c21.76-12.992,38.368-33.408,46.176-58.016
			c-20.288,12.096-42.688,20.64-66.56,25.408C411.872,60.704,384.416,48,354.464,48c-58.112,0-104.896,47.168-104.896,104.992
			c0,8.32,0.704,16.32,2.432,23.936c-87.264-4.256-164.48-46.08-216.352-109.792c-9.056,15.712-14.368,33.696-14.368,53.056
			c0,36.352,18.72,68.576,46.624,87.232c-16.864-0.32-33.408-5.216-47.424-12.928c0,0.32,0,0.736,0,1.152
			c0,51.008,36.384,93.376,84.096,103.136c-8.544,2.336-17.856,3.456-27.52,3.456c-6.72,0-13.504-0.384-19.872-1.792
			c13.6,41.568,52.192,72.128,98.08,73.12c-35.712,27.936-81.056,44.768-130.144,44.768c-8.608,0-16.864-0.384-25.12-1.44
			C46.496,446.88,101.6,464,161.024,464c193.152,0,298.752-160,298.752-298.688c0-4.64-0.16-9.12-0.384-13.568
			C480.224,136.96,497.728,118.496,512,97.248z"/>
	</g>
</g>
<g>
</g>
<g>
</g>
<g>
</g>
<g>
</g>
<g>
</g>
<g>
</g>
<g>
</g>
<g>
</g>
<g>
</g>
<g>
</g>
<g>
</g>
<g>
</g>
<g>
</g>
<g>
</g>
<g>
</g>
</symbol></svg>